<svg xmlns="http://www.w3.org/2000/svg" width="82.819" height="86.42" viewBox="0 0 82.819 86.42"><defs><style>.a{fill:#fff;}</style></defs><g transform="translate(-10.667)"><g transform="translate(10.667)"><path class="a" d="M30.471,0h-14.4a5.408,5.408,0,0,0-5.4,5.4V81.018a5.408,5.408,0,0,0,5.4,5.4h14.4a5.408,5.408,0,0,0,5.4-5.4V5.4A5.408,5.408,0,0,0,30.471,0Zm1.8,81.018a1.8,1.8,0,0,1-1.8,1.8h-14.4a1.8,1.8,0,0,1-1.8-1.8V5.4a1.8,1.8,0,0,1,1.8-1.8h14.4a1.8,1.8,0,0,1,1.8,1.8Z" transform="translate(-10.667)"/></g><g transform="translate(17.869 64.815)"><path class="a" d="M58.734,384a5.4,5.4,0,1,0,5.4,5.4A5.408,5.408,0,0,0,58.734,384Zm0,7.2a1.8,1.8,0,1,1,1.8-1.8A1.8,1.8,0,0,1,58.734,391.2Z" transform="translate(-53.333 -384)"/></g><g transform="translate(17.869 21.605)"><path class="a" d="M62.335,128h-7.2a1.8,1.8,0,1,0,0,3.6h7.2a1.8,1.8,0,1,0,0-3.6Z" transform="translate(-53.333 -128)"/></g><g transform="translate(17.869 14.403)"><path class="a" d="M62.335,85.333h-7.2a1.8,1.8,0,1,0,0,3.6h7.2a1.8,1.8,0,1,0,0-3.6Z" transform="translate(-53.333 -85.333)"/></g><g transform="translate(17.869 7.202)"><path class="a" d="M62.335,42.667h-7.2a1.8,1.8,0,1,0,0,3.6h7.2a1.8,1.8,0,1,0,0-3.6Z" transform="translate(-53.333 -42.667)"/></g><g transform="translate(39.474)"><path class="a" d="M201.138,0h-14.4a5.408,5.408,0,0,0-5.4,5.4V81.018a5.408,5.408,0,0,0,5.4,5.4h14.4a5.408,5.408,0,0,0,5.4-5.4V5.4A5.408,5.408,0,0,0,201.138,0Zm1.8,81.018a1.8,1.8,0,0,1-1.8,1.8h-14.4a1.8,1.8,0,0,1-1.8-1.8V5.4a1.8,1.8,0,0,1,1.8-1.8h14.4a1.8,1.8,0,0,1,1.8,1.8Z" transform="translate(-181.334)"/></g><g transform="translate(46.675 64.815)"><path class="a" d="M229.4,384a5.4,5.4,0,1,0,5.4,5.4A5.408,5.408,0,0,0,229.4,384Zm0,7.2a1.8,1.8,0,1,1,1.8-1.8A1.8,1.8,0,0,1,229.4,391.2Z" transform="translate(-224 -384)"/></g><g transform="translate(46.675 21.605)"><path class="a" d="M233,128h-7.2a1.8,1.8,0,1,0,0,3.6H233a1.8,1.8,0,0,0,0-3.6Z" transform="translate(-223.999 -128)"/></g><g transform="translate(46.675 14.403)"><path class="a" d="M233,85.333h-7.2a1.8,1.8,0,0,0,0,3.6H233a1.8,1.8,0,1,0,0-3.6Z" transform="translate(-224 -85.333)"/></g><g transform="translate(46.675 7.202)"><path class="a" d="M233,42.667h-7.2a1.8,1.8,0,1,0,0,3.6H233a1.8,1.8,0,0,0,0-3.6Z" transform="translate(-223.999 -42.667)"/></g><g transform="translate(68.28)"><path class="a" d="M371.8,0H357.4A5.408,5.408,0,0,0,352,5.4V81.018a5.408,5.408,0,0,0,5.4,5.4h14.4a5.408,5.408,0,0,0,5.4-5.4V5.4A5.408,5.408,0,0,0,371.8,0Zm1.8,81.018a1.8,1.8,0,0,1-1.8,1.8H357.4a1.8,1.8,0,0,1-1.8-1.8V5.4a1.8,1.8,0,0,1,1.8-1.8h14.4a1.8,1.8,0,0,1,1.8,1.8Z" transform="translate(-352)"/></g><g transform="translate(75.482 64.815)"><path class="a" d="M400.068,384a5.4,5.4,0,1,0,5.4,5.4A5.408,5.408,0,0,0,400.068,384Zm0,7.2a1.8,1.8,0,1,1,1.8-1.8A1.8,1.8,0,0,1,400.068,391.2Z" transform="translate(-394.667 -384)"/></g><g transform="translate(75.482 21.605)"><path class="a" d="M403.668,128h-7.2a1.8,1.8,0,1,0,0,3.6h7.2a1.8,1.8,0,1,0,0-3.6Z" transform="translate(-394.666 -128)"/></g><g transform="translate(75.482 14.403)"><path class="a" d="M403.668,85.333h-7.2a1.8,1.8,0,1,0,0,3.6h7.2a1.8,1.8,0,1,0,0-3.6Z" transform="translate(-394.666 -85.333)"/></g><g transform="translate(75.482 7.202)"><path class="a" d="M403.668,42.667h-7.2a1.8,1.8,0,1,0,0,3.6h7.2a1.8,1.8,0,1,0,0-3.6Z" transform="translate(-394.666 -42.667)"/></g></g></svg>