<svg xmlns="http://www.w3.org/2000/svg" width="78.131" height="86.221" viewBox="0 0 78.131 86.221"><defs><style>.a{fill:#fff;}</style></defs><g transform="translate(-24.019 0)"><g transform="translate(24.019 0)"><g transform="translate(0)"><path class="a" d="M102.144,36.228a1.279,1.279,0,0,0-.37-.774s-7.682-7.571-7.723-7.6v-15.8a1.266,1.266,0,0,0-1.266-1.266H76.76c-.016-.018-.032-.037-.049-.054L67.648,1.8l-.027-.026a6.693,6.693,0,0,0-9.071,0l-.027.026-9.063,8.939c-.018.017-.033.036-.05.054H33.385a1.266,1.266,0,0,0-1.266,1.266V27.863c-.056.04-7.723,7.591-7.723,7.591a1.279,1.279,0,0,0-.377.9v48.6a1.266,1.266,0,0,0,1.266,1.266h75.6a1.266,1.266,0,0,0,1.266-1.266S102.149,36.271,102.144,36.228ZM94.05,31.392l3.749,3.7H94.05ZM60.285,3.614a4.152,4.152,0,0,1,5.6,0l7.276,7.176H53.009ZM34.65,13.321H91.519V18.89H34.65Zm0,16.2H78.779a1.266,1.266,0,1,0,0-2.531H34.65V21.421H91.519V26.99H84.685a1.266,1.266,0,1,0,0,2.531h6.834V35.09H73.885a1.266,1.266,0,0,0-1.266,1.266,9.534,9.534,0,0,1-19.069,0,1.266,1.266,0,0,0-1.266-1.266H34.65Zm-2.531,1.871v3.7H28.37Zm67.5,52.3H26.55V37.621H51.085a12.066,12.066,0,0,0,24,0H99.619V83.69Z" transform="translate(-24.019 0)"/></g></g><g transform="translate(29.419 39.207)"><g transform="translate(0)"><path class="a" d="M57.352,232.822a1.266,1.266,0,0,0-1.266,1.266v2.059a1.266,1.266,0,0,0,2.531,0v-2.059A1.266,1.266,0,0,0,57.352,232.822Z" transform="translate(-56.086 -232.822)"/></g></g><g transform="translate(29.419 45.384)"><g transform="translate(0)"><path class="a" d="M57.352,269.5a1.266,1.266,0,0,0-1.266,1.266v2.059a1.266,1.266,0,1,0,2.531,0v-2.059A1.266,1.266,0,0,0,57.352,269.5Z" transform="translate(-56.086 -269.498)"/></g></g><g transform="translate(29.419 51.56)"><g transform="translate(0)"><path class="a" d="M57.352,306.174a1.266,1.266,0,0,0-1.266,1.266V309.5a1.266,1.266,0,0,0,2.531,0V307.44A1.266,1.266,0,0,0,57.352,306.174Z" transform="translate(-56.086 -306.174)"/></g></g><g transform="translate(29.419 63.912)"><g transform="translate(0)"><path class="a" d="M57.352,379.525a1.266,1.266,0,0,0-1.266,1.266v2.059a1.266,1.266,0,0,0,2.531,0v-2.059A1.266,1.266,0,0,0,57.352,379.525Z" transform="translate(-56.086 -379.525)"/></g></g><g transform="translate(29.419 70.088)"><g transform="translate(0)"><path class="a" d="M57.352,416.2a1.266,1.266,0,0,0-1.266,1.266v2.059a1.266,1.266,0,1,0,2.531,0v-2.059A1.266,1.266,0,0,0,57.352,416.2Z" transform="translate(-56.086 -416.201)"/></g></g><g transform="translate(29.419 57.736)"><g transform="translate(0)"><path class="a" d="M57.352,342.85a1.266,1.266,0,0,0-1.266,1.266v2.059a1.266,1.266,0,0,0,2.531,0v-2.059A1.266,1.266,0,0,0,57.352,342.85Z" transform="translate(-56.086 -342.85)"/></g></g><g transform="translate(29.419 75.927)"><g transform="translate(0)"><path class="a" d="M57.352,450.873a1.266,1.266,0,0,0-1.266,1.266V454.5a1.266,1.266,0,0,0,2.531,0v-2.363A1.266,1.266,0,0,0,57.352,450.873Z" transform="translate(-56.086 -450.873)"/></g></g><g transform="translate(87.321 78.29)"><path class="a" d="M403.149,464.9h-1.962a1.266,1.266,0,0,0,0,2.531h1.962a1.266,1.266,0,0,0,0-2.531Z" transform="translate(-399.922 -464.902)"/></g><g transform="translate(69.666 78.29)"><path class="a" d="M298.307,464.9h-1.962a1.266,1.266,0,0,0,0,2.531h1.962a1.266,1.266,0,0,0,0-2.531Z" transform="translate(-295.08 -464.902)"/></g><g transform="translate(75.551 78.29)"><path class="a" d="M333.255,464.9h-1.962a1.266,1.266,0,0,0,0,2.531h1.962a1.266,1.266,0,0,0,0-2.531Z" transform="translate(-330.028 -464.902)"/></g><g transform="translate(34.355 78.29)"><g transform="translate(0)"><path class="a" d="M88.624,464.9H86.662a1.266,1.266,0,1,0,0,2.531h1.962a1.266,1.266,0,0,0,0-2.531Z" transform="translate(-85.396 -464.902)"/></g></g><g transform="translate(81.436 78.29)"><path class="a" d="M368.2,464.9h-1.962a1.266,1.266,0,0,0,0,2.531H368.2a1.266,1.266,0,1,0,0-2.531Z" transform="translate(-364.975 -464.902)"/></g><g transform="translate(52.01 78.29)"><path class="a" d="M193.465,464.9H191.5a1.266,1.266,0,1,0,0,2.531h1.962a1.266,1.266,0,1,0,0-2.531Z" transform="translate(-190.238 -464.902)"/></g><g transform="translate(46.125 78.29)"><path class="a" d="M158.518,464.9h-1.962a1.266,1.266,0,1,0,0,2.531h1.962a1.266,1.266,0,1,0,0-2.531Z" transform="translate(-155.291 -464.902)"/></g><g transform="translate(40.24 78.29)"><path class="a" d="M123.571,464.9H121.61a1.266,1.266,0,1,0,0,2.531h1.962a1.266,1.266,0,1,0,0-2.531Z" transform="translate(-120.344 -464.902)"/></g><g transform="translate(57.896 78.29)"><path class="a" d="M228.413,464.9h-1.962a1.266,1.266,0,1,0,0,2.531h1.962a1.266,1.266,0,0,0,0-2.531Z" transform="translate(-225.186 -464.902)"/></g><g transform="translate(63.781 78.29)"><path class="a" d="M263.36,464.9H261.4a1.266,1.266,0,1,0,0,2.531h1.962a1.266,1.266,0,1,0,0-2.531Z" transform="translate(-260.133 -464.902)"/></g><g transform="translate(94.219 75.927)"><path class="a" d="M442.148,450.873a1.266,1.266,0,0,0-1.266,1.266V454.5a1.266,1.266,0,0,0,2.531,0v-2.363A1.266,1.266,0,0,0,442.148,450.873Z" transform="translate(-440.882 -450.873)"/></g><g transform="translate(94.219 57.567)"><path class="a" d="M442.148,341.848a1.266,1.266,0,0,0-1.266,1.266v2.059a1.266,1.266,0,0,0,2.531,0v-2.059A1.266,1.266,0,0,0,442.148,341.848Z" transform="translate(-440.882 -341.848)"/></g><g transform="translate(94.219 45.215)"><path class="a" d="M442.148,268.5a1.266,1.266,0,0,0-1.266,1.266v2.059a1.266,1.266,0,0,0,2.531,0v-2.059A1.266,1.266,0,0,0,442.148,268.5Z" transform="translate(-440.882 -268.496)"/></g><g transform="translate(94.219 39.039)"><path class="a" d="M442.148,231.82a1.266,1.266,0,0,0-1.266,1.266v2.059a1.266,1.266,0,1,0,2.531,0v-2.059A1.266,1.266,0,0,0,442.148,231.82Z" transform="translate(-440.882 -231.82)"/></g><g transform="translate(94.219 63.743)"><path class="a" d="M442.148,378.523a1.266,1.266,0,0,0-1.266,1.266v2.059a1.266,1.266,0,0,0,2.531,0v-2.059A1.266,1.266,0,0,0,442.148,378.523Z" transform="translate(-440.882 -378.523)"/></g><g transform="translate(94.219 51.391)"><path class="a" d="M442.148,305.172a1.266,1.266,0,0,0-1.266,1.266V308.5a1.266,1.266,0,0,0,2.531,0v-2.059A1.266,1.266,0,0,0,442.148,305.172Z" transform="translate(-440.882 -305.172)"/></g><g transform="translate(94.219 69.92)"><path class="a" d="M442.148,415.2a1.266,1.266,0,0,0-1.266,1.266v2.059a1.266,1.266,0,1,0,2.531,0v-2.059A1.266,1.266,0,0,0,442.148,415.2Z" transform="translate(-440.882 -415.199)"/></g><g transform="translate(51.019 66.14)"><path class="a" d="M207.217,392.753h-21.6a1.266,1.266,0,0,0,0,2.531h21.6a1.266,1.266,0,0,0,0-2.531Z" transform="translate(-184.351 -392.753)"/></g></g></svg>