<svg xmlns="http://www.w3.org/2000/svg" width="105.517" height="136.427" viewBox="0 0 105.517 136.427"><path d="M163.517,22.253,141.264,0H75.053V72.55a18.636,18.636,0,0,0-10.658,32.62v31.257h4.393l7.865-7.865,7.865,7.865h4.393V122.571h74.608ZM142.2,5.458l15.858,15.858H142.2Zm-81,85.67a15.455,15.455,0,1,1,15.455,15.455A15.472,15.472,0,0,1,61.2,91.129ZM76.652,124.04l-9.06,9.06V107.425a18.6,18.6,0,0,0,18.119,0V133.1Zm12.257-4.667v-14.2A18.636,18.636,0,0,0,78.251,72.55V3.2H139V24.514H160.32v94.859Z" transform="translate(-58)"/><path d="M176,64h25.58v3.2H176Z" transform="translate(-144.558 -46.947)"/><path d="M176,96h17.053v3.2H176Z" transform="translate(-144.558 -70.42)"/><path d="M176,144h59.687v3.2H176Z" transform="translate(-144.558 -105.63)"/><path d="M176,176h59.687v3.2H176Z" transform="translate(-144.558 -129.103)"/><path d="M176,240h59.687v3.2H176Z" transform="translate(-144.558 -176.05)"/><path d="M208,272h42.633v3.2H208Z" transform="translate(-168.031 -199.523)"/><path d="M176,208h59.687v3.2H176Z" transform="translate(-144.558 -152.577)"/><path d="M304,320h25.58v3.2H304Z" transform="translate(-238.451 -234.733)"/><path d="M336,352h17.053v3.2H336Z" transform="translate(-261.925 -258.207)"/><path d="M100.125,324.251A10.125,10.125,0,1,0,90,314.125,10.137,10.137,0,0,0,100.125,324.251Zm0-17.053a6.928,6.928,0,1,1-6.928,6.928A6.936,6.936,0,0,1,100.125,307.2Z" transform="translate(-81.473 -222.997)"/></svg>