<svg xmlns="http://www.w3.org/2000/svg" width="59.538" height="59.559" viewBox="0 0 59.538 59.559"><defs><style>.a{fill:#fff;}</style></defs><path class="a" d="M8.723,22.445A3.723,3.723,0,1,0,5,18.723,3.727,3.727,0,0,0,8.723,22.445Zm0-4.963a1.241,1.241,0,1,1-1.241,1.241A1.241,1.241,0,0,1,8.723,17.482Z" transform="translate(-0.036 14.781)"/><path class="a" d="M62.108,35.543,44.1,20.8l2.881-2.4A8.686,8.686,0,0,0,41.467,3a9.029,9.029,0,0,0-5.584,2.033C17.878,20.059,6.271,29.664,5.991,30A8.568,8.568,0,0,0,6.006,43.02c.308.355.886.71,24.775,19.281a1.25,1.25,0,0,0,1.556-.027L62.118,37.456A1.289,1.289,0,0,0,62.108,35.543Zm-2.735.968L31.513,59.727,12.649,45.093a9.13,9.13,0,0,0,4.6-1.913L42.16,22.42Zm-11.7-24.825a6.149,6.149,0,0,1-2.236,4.767L20.281,37.417a8.591,8.591,0,0,0-7.942-9.535L37.5,6.916a6.2,6.2,0,0,1,10.173,4.77ZM5.482,36.5a6.2,6.2,0,1,1,6.2,6.2A6.213,6.213,0,0,1,5.482,36.5Z" transform="translate(-3 -3)"/></svg>