<svg xmlns="http://www.w3.org/2000/svg" width="55.19" height="50.336" viewBox="0 0 55.19 50.336"><defs><style>.a{fill:#fff;}</style></defs><path class="a" d="M49.043.5H37.854a14.118,14.118,0,0,0-8.822,3.654L1.795,31.391a6.16,6.16,0,0,0,0,8.693l7.1,7.1a6.159,6.159,0,0,0,8.693,0L43.144,21.622c2.083-2.083,3.654-5.395,3.655-7.7a5.037,5.037,0,0,0-5.028-5.028h0c-2.308,0-5.62,1.571-7.7,3.654L12.057,34.556a1.672,1.672,0,1,0,2.364,2.364l22.01-22.01a9.649,9.649,0,0,1,5.34-2.675,1.7,1.7,0,0,1,1.685,1.685,9.649,9.649,0,0,1-2.675,5.34L15.221,44.818a2.817,2.817,0,0,1-3.966,0l-7.1-7.1a2.807,2.807,0,0,1,0-3.966L31.4,6.518a10.846,10.846,0,0,1,6.458-2.675H49.043a2.807,2.807,0,0,1,2.8,2.8V17.835a10.85,10.85,0,0,1-2.675,6.459L25.483,47.983a1.671,1.671,0,1,0,2.364,2.363L51.535,26.657a14.12,14.12,0,0,0,3.654-8.822V6.647A6.154,6.154,0,0,0,49.043.5Zm0,0" transform="translate(0 -0.5)"/></svg>