<svg xmlns="http://www.w3.org/2000/svg" width="146.532" height="136.556" viewBox="0 0 146.532 136.556"><path d="M146.609,84.474H139.22a7.277,7.277,0,0,0-6.946-5.339h-7.887V59.847a2.035,2.035,0,0,0-.993-1.8L67.754,25.912a2.055,2.055,0,0,0-2.065,0L10.032,58.049A2.071,2.071,0,0,0,9,59.847v64.274a2.076,2.076,0,0,0,1.038,1.8L65.7,158.056a2.076,2.076,0,0,0,1.038.278,2.184,2.184,0,0,0,1.068-.278L97.1,141.161v12.213a8.793,8.793,0,0,0,8.866,8.815h40.645a8.841,8.841,0,0,0,8.924-8.815V93.427A8.958,8.958,0,0,0,146.609,84.474Zm-14.261-1.187a3.014,3.014,0,0,1,3.014,3.014v.2a3.014,3.014,0,0,1-3.014,3.014H120.282a3.014,3.014,0,0,1-3.014-3.014v-.2a3.014,3.014,0,0,1,3.014-3.014ZM66.739,30.108,89.868,43.461,38.362,73.2,15.233,59.845ZM64.765,152.661,13.153,122.922V63.439L64.765,93.178Zm1.974-63.08L42.514,75.6,94.021,45.859l24.226,13.986ZM97.1,93.427v42.94l-28.179,16.3V93.178l51.316-29.739v15.7h.064a7.277,7.277,0,0,0-6.946,5.339h-7.389A8.91,8.91,0,0,0,97.1,93.427Zm54.282,59.948a4.685,4.685,0,0,1-4.771,4.662H105.964a4.636,4.636,0,0,1-4.714-4.662V93.427a4.753,4.753,0,0,1,4.714-4.8h7.47a7.1,7.1,0,0,0,6.865,5.043h11.976a7.1,7.1,0,0,0,6.865-5.043h7.47a4.8,4.8,0,0,1,4.771,4.8Z" transform="translate(-9 -25.634)"/><path d="M339.061,291.941h2.173a2.076,2.076,0,1,0,0-4.153h-.082v-5.636h5.727a2,2,0,0,0,1.974,1.4,2.082,2.082,0,0,0,2.088-2.072v-1.4a2.1,2.1,0,0,0-2.1-2.086h-9.781A2.072,2.072,0,0,0,337,280.086v9.781a2.062,2.062,0,0,0,2.061,2.074Z" transform="translate(-239.707 -203.142)"/><path d="M339.076,355.941h9.789a2.076,2.076,0,0,0,2.076-2.076v-9.789A2.076,2.076,0,0,0,348.865,342h-9.789A2.076,2.076,0,0,0,337,344.076v9.789A2.076,2.076,0,0,0,339.076,355.941Zm2.076-9.789h5.636v5.636h-5.636Z" transform="translate(-239.707 -248.158)"/><path d="M341.235,415.789h-.082v-5.636h5.615a2.087,2.087,0,1,0,4.174,0v-2a2.165,2.165,0,0,0-2.1-2.156h-9.781A2.133,2.133,0,0,0,337,408.156v9.781a2,2,0,0,0,2.061,2h2.174a2.076,2.076,0,0,0,0-4.153Z" transform="translate(-239.707 -293.174)"/><path d="M365.83,285.148l-6.081,6.081-1.85-1.85a2.076,2.076,0,1,0-2.937,2.937l3.318,3.318a2.076,2.076,0,0,0,2.937,0l7.55-7.55a2.076,2.076,0,0,0-2.937-2.937Z" transform="translate(-251.914 -207.741)"/><path d="M365.83,414.4l-6.081,6.081-1.85-1.85a2.076,2.076,0,1,0-2.937,2.937l3.318,3.318a2.076,2.076,0,0,0,2.937,0l7.55-7.55a2.076,2.076,0,0,0-2.937-2.937Z" transform="translate(-251.914 -298.652)"/><path d="M429.009,295H415.967a2.076,2.076,0,0,0,0,4.153h13.041a2.076,2.076,0,1,0,0-4.153Z" transform="translate(-293.791 -215.099)"/><path d="M429.009,359H415.967a2.076,2.076,0,0,0,0,4.153h13.041a2.076,2.076,0,1,0,0-4.153Z" transform="translate(-293.791 -260.115)"/><path d="M429.009,423H415.967a2.076,2.076,0,0,0,0,4.153h13.041a2.076,2.076,0,1,0,0-4.153Z" transform="translate(-293.791 -305.132)"/></svg>