<svg xmlns="http://www.w3.org/2000/svg" width="91.687" height="87.221" viewBox="0 0 91.687 87.221"><defs><style>.a{fill:#fff;}</style></defs><g transform="translate(0 -11.486)"><g transform="translate(0 11.486)"><path class="a" d="M83.916,18.859a25.849,25.849,0,0,0-36.16,0L5.62,61A19.741,19.741,0,0,0,33.536,88.915L71.69,50.76A12.7,12.7,0,0,0,53.728,32.8l-36.5,36.5a3.318,3.318,0,0,0,4.691,4.691l36.5-36.5A6.068,6.068,0,0,1,67,46.069L28.845,84.223A13.105,13.105,0,0,1,10.312,65.69L52.447,23.555A19.222,19.222,0,0,1,79.636,50.734L37.5,92.869a3.318,3.318,0,1,0,4.678,4.678L84.314,55.412A25.848,25.848,0,0,0,83.916,18.859Z" transform="translate(0 -11.486)"/></g></g></svg>