<svg xmlns="http://www.w3.org/2000/svg" width="62.022" height="49.911" viewBox="0 0 62.022 49.911"><defs><style>.a{fill:#fff;}</style></defs><path class="a" d="M61.5,68.614l-7.407-3.5,7.407-3.5a.909.909,0,0,0,0-1.643l-20.959-9.9a.909.909,0,0,0-.776,0l-8.759,4.136-8.759-4.136a.908.908,0,0,0-.776,0l-3.681,1.738a.909.909,0,0,0,.776,1.643L21.859,51.9l7.019,3.315L10.047,64.111,3.028,60.8l12.04-5.686a.909.909,0,0,0-.776-1.643L.512,59.975a.915.915,0,0,0,0,1.643l7.407,3.5-7.407,3.5a.916.916,0,0,0,0,1.643l8.627,4.074V89.1a.909.909,0,0,0,.521.822l20.959,9.9.009,0,.029.012c.027.011.054.021.081.03l.038.011c.027.007.054.013.081.017l.035.006a.834.834,0,0,0,.23,0l.035-.006c.027,0,.054-.01.08-.017l.038-.011c.027-.008.055-.019.081-.03l.029-.012.009,0,20.959-9.9a.909.909,0,0,0,.521-.822V74.331L61.5,70.257A.915.915,0,0,0,61.5,68.614ZM40.153,51.9,58.984,60.8l-7.019,3.315L33.134,55.219ZM3.028,69.435l7.019-3.315,18.831,8.892-7.019,3.315ZM30.1,97.558h0L10.956,88.519V75.189l10.515,4.965a.922.922,0,0,0,.776,0L30.1,76.447Zm.909-23.55L12.175,65.116l18.831-8.892,18.831,8.892Zm.909,23.55V76.447l7.851,3.707a.923.923,0,0,0,.776,0l10.515-4.965V88.519h0Zm8.239-19.231-7.019-3.315,18.831-8.892,7.019,3.315Z" transform="translate(0.001 -49.991)"/></svg>