<svg xmlns="http://www.w3.org/2000/svg" width="86.221" height="86.221" viewBox="0 0 86.221 86.221"><defs><style>.a{fill:#fff;}</style></defs><g transform="translate(0 0)"><path class="a" d="M0,45.985v2.874a4.3,4.3,0,0,0,3.111,4.12l6,27.576a7.185,7.185,0,0,0,7.01,5.666H70.1a7.185,7.185,0,0,0,7.008-5.658l6-27.591a4.3,4.3,0,0,0,3.111-4.114V45.985a4.311,4.311,0,0,0-4.311-4.311H79.585a58.619,58.619,0,0,0-4.86-11.844V25.866a4.311,4.311,0,0,0-2.874-4.047V14.945l4.084-4.268,1.246,1.246a4.4,4.4,0,0,0,6.084,0l1.7-1.7a4.311,4.311,0,0,0,0-6.084L82.087,1.269A4.279,4.279,0,0,0,79.036,0H50.3a2.874,2.874,0,0,0-2.874,2.874V7.185A2.874,2.874,0,0,0,50.3,10.059h1.437v5.03L49.146,17.03a4.311,4.311,0,0,0,5.173,6.9l4.318-3.235a4.348,4.348,0,0,0,1.717-3.449V11.018l2.874,3.831V21.82a4.311,4.311,0,0,0-2.874,4.047v4.078l-1.164,3.5a19.729,19.729,0,0,1-5.3,8.226h-5.03V33.052A12.915,12.915,0,0,0,45.072,23.9a13.288,13.288,0,0,0-2.035-1.651,1.4,1.4,0,0,0,.073-.364V9.581a2.4,2.4,0,0,0-1.2-2.074,2.342,2.342,0,0,0-2.37,0,9.121,9.121,0,0,1-7.23,0,2.344,2.344,0,0,0-2.374,0,2.4,2.4,0,0,0-1.2,2.074v12.3a1.4,1.4,0,0,0,.076.379,13.029,13.029,0,0,0-2.222,1.858c-.07-.073-.131-.144-.2-.223a13.288,13.288,0,0,0-2.035-1.651,1.4,1.4,0,0,0,.073-.364V11.5a7.185,7.185,0,1,0-14.37,0V21.883a1.391,1.391,0,0,0,.076.377A12.923,12.923,0,0,0,4.311,33.052v8.622A4.311,4.311,0,0,0,0,45.985Zm2.874,0a1.437,1.437,0,0,1,1.437-1.437h5.748V50.3H4.311a1.437,1.437,0,0,1-1.437-1.437Zm21.555-11.5a1.437,1.437,0,0,1,1.437,1.437V58.918a1.437,1.437,0,0,1-1.437,1.437H14.37a1.437,1.437,0,0,1-1.437-1.437V35.926a1.437,1.437,0,0,1,1.437-1.437Zm-.979,41.483a1.437,1.437,0,0,1-1.2,1.608,1.48,1.48,0,0,1-1.647-1.224L18.8,63.229H21.7ZM74.294,79.96a4.3,4.3,0,0,1-4.2,3.387H16.123a4.311,4.311,0,0,1-4.2-3.4L6.094,53.17h3.965v5.748a4.311,4.311,0,0,0,4.311,4.311h1.536L17.76,76.75a4.337,4.337,0,0,0,4.269,3.723,5.082,5.082,0,0,0,.575-.042A4.3,4.3,0,0,0,26.3,75.579l-1.7-12.367a4.311,4.311,0,0,0,4.146-4.294V53.17H80.127Zm9.053-31.1A1.437,1.437,0,0,1,81.91,50.3H28.74V44.548H81.91a1.437,1.437,0,0,1,1.437,1.437ZM66.1,15.807h2.874v5.748H66.1ZM50.3,2.874h4.311V7.185H50.3Zm6.61,15.52L52.6,21.627a1.437,1.437,0,1,1-1.724-2.3l3.161-2.371a1.437,1.437,0,0,0,.575-1.15V10.059h2.874v7.185a1.46,1.46,0,0,1-.575,1.15ZM60.355,7.185H57.481V2.874H79.036a1.428,1.428,0,0,1,1.017.421l2.874,2.874a1.437,1.437,0,0,1,0,2.02l-1.7,1.694a1.461,1.461,0,0,1-2.02,0L76.927,7.6a1.437,1.437,0,0,0-1.015-.414H75.9a1.437,1.437,0,0,0-1.022.444l-5.076,5.3H65.385L61.5,7.76a1.437,1.437,0,0,0-1.15-.575Zm2.874,18.681a1.437,1.437,0,0,1,1.437-1.437h5.748a1.437,1.437,0,0,1,1.437,1.437V28.74H63.229ZM61.92,34.352l.91-2.738h9.582a55.73,55.73,0,0,1,4.182,10.059H57.849A22.561,22.561,0,0,0,61.92,34.352ZM31.614,10.361a12.157,12.157,0,0,0,8.622,0V20.87a12.718,12.718,0,0,0-8.622,0Zm4.311,12.631A10.043,10.043,0,0,1,45.985,33.052v8.622H43.111V34.489a1.437,1.437,0,0,0-2.874,0v7.185H28.74V35.926A4.311,4.311,0,0,0,25.955,31.9a9.957,9.957,0,0,1,1.8-4.713,10.086,10.086,0,0,1,8.172-4.2ZM17.244,7.185A4.311,4.311,0,0,1,21.555,11.5v1.437H12.933V11.5A4.311,4.311,0,0,1,17.244,7.185Zm-4.311,8.622h8.622v5.061a12.729,12.729,0,0,0-8.622,0ZM7.185,33.052A10.059,10.059,0,0,1,24.36,25.933c.174.174.332.351.484.527A12.79,12.79,0,0,0,23.1,31.615H14.37a4.311,4.311,0,0,0-4.311,4.311v5.748H7.185Z" transform="translate(0 0)"/><path class="a" d="M48.742,39.04a4.311,4.311,0,0,0-4.86,3.685l-2.17,15.807A4.311,4.311,0,1,0,50.254,59.7L52.422,43.9A4.311,4.311,0,0,0,48.742,39.04ZM47.407,59.314a1.437,1.437,0,0,1-2.848-.391l2.168-15.807a1.437,1.437,0,0,1,.56-.953,1.415,1.415,0,0,1,.862-.287,1.559,1.559,0,0,1,.2.013,1.437,1.437,0,0,1,1.23,1.62Z" transform="translate(18.209 17.044)"/><path class="a" d="M28.477,40.111a4.3,4.3,0,0,0-7.182,3.406l.762,15.807a4.311,4.311,0,0,0,4.311,4.1h.211a4.311,4.311,0,0,0,4.1-4.515L29.915,43.1a4.279,4.279,0,0,0-1.438-2.993ZM26.439,60.557l-.079,1.437V60.557a1.437,1.437,0,0,1-1.437-1.368l-.762-15.807a1.437,1.437,0,0,1,1.382-1.506h.072a1.415,1.415,0,0,1,.938.371,1.437,1.437,0,0,1,.483,1L27.8,59.051A1.437,1.437,0,0,1,26.439,60.557Z" transform="translate(9.304 17.042)"/><path class="a" d="M37.46,39a4.358,4.358,0,0,0-4.514,4.1l-.762,15.807a4.311,4.311,0,0,0,4.1,4.524h.205a4.311,4.311,0,0,0,4.3-4.1L41.56,43.52A4.311,4.311,0,0,0,37.46,39Zm.467,20.183a1.437,1.437,0,0,1-1.437,1.368v1.437l-.073-1.437a1.437,1.437,0,0,1-1.365-1.5l.762-15.807a1.423,1.423,0,0,1,1.437-1.368h.073a1.437,1.437,0,0,1,1.365,1.5Z" transform="translate(14.063 17.043)"/><ellipse class="a" cx="1.5" cy="1" rx="1.5" ry="1" transform="translate(35 15)"/></g></svg>