<svg xmlns="http://www.w3.org/2000/svg" width="81.371" height="86.795" viewBox="0 0 81.371 86.795"><defs><style>.a{fill:#fff;}</style></defs><g transform="translate(-2)"><path class="a" d="M35.036,64.782a1.357,1.357,0,0,0,1.693.034l46.11-35.26a1.356,1.356,0,0,0,.045-2.119L50.335.314A1.356,1.356,0,0,0,48.642.28L2.533,35.54a1.356,1.356,0,0,0-.045,2.119ZM49.43,3.091l30.41,25.343-43.9,33.57L5.53,36.662Z" transform="translate(0 0)"/><path class="a" d="M81.19,36.279l-45.25,34.6L4.225,44.451a1.357,1.357,0,1,0-1.738,2.085L35.036,73.659a1.357,1.357,0,0,0,1.693.034l46.11-35.26a1.356,1.356,0,0,0-1.648-2.153Z" transform="translate(0 12.822)"/><path class="a" d="M81.19,31.279l-45.25,34.6L4.225,39.451a1.357,1.357,0,1,0-1.738,2.085L35.036,68.659a1.357,1.357,0,0,0,1.693.034l46.11-35.26a1.356,1.356,0,1,0-1.648-2.153Z" transform="translate(0 11.041)"/><path class="a" d="M81.19,26.279l-45.25,34.6L4.225,34.451a1.357,1.357,0,0,0-1.738,2.085L35.036,63.659a1.357,1.357,0,0,0,1.693.034l46.11-35.26a1.356,1.356,0,1,0-1.648-2.153Z" transform="translate(0 9.261)"/><path class="a" d="M55.162,28.364a1.356,1.356,0,0,0,1.785-2.042L35.249,7.335a1.356,1.356,0,1,0-1.785,2.042Z" transform="translate(11.041 2.493)"/><path class="a" d="M48.662,33.864a1.356,1.356,0,1,0,1.785-2.042l-21.7-18.986a1.356,1.356,0,1,0-1.785,2.042Z" transform="translate(8.726 4.452)"/><path class="a" d="M42.162,39.364a1.356,1.356,0,0,0,1.785-2.042l-21.7-18.986a1.356,1.356,0,1,0-1.785,2.042Z" transform="translate(6.411 6.411)"/><path class="a" d="M36.555,45.2a1.356,1.356,0,0,0,.893-2.377l-21.7-18.986a1.356,1.356,0,1,0-1.785,2.042l21.7,18.986a1.348,1.348,0,0,0,.893.335Z" transform="translate(4.096 8.37)"/></g></svg>