<svg xmlns="http://www.w3.org/2000/svg" width="16" height="16" viewBox="0 0 16 16"><defs><style>.a{fill:#fff;}</style></defs><path class="a" d="M15,16A14.722,14.722,0,0,1,0,1,1,1,0,0,1,1,0H3.639a1,1,0,0,1,.989.854,12.417,12.417,0,0,0,1.016,3.4l.1.222a.707.707,0,0,1-.231.872A1.934,1.934,0,0,0,5.024,8.02,11.818,11.818,0,0,0,7.98,10.977a1.934,1.934,0,0,0,2.675-.493.707.707,0,0,1,.873-.231l.221.1a12.418,12.418,0,0,0,3.4,1.016A1,1,0,0,1,16,12.36V15a1,1,0,0,1-1,1Z" transform="translate(0 16) rotate(-90)"/></svg>