<svg xmlns="http://www.w3.org/2000/svg" width="87.22" height="87.221" viewBox="0 0 87.22 87.221"><defs><style>.a{fill:#fff;}</style></defs><g transform="translate(-4.75 -4.75)"><path class="a" d="M109.913,43.333a1.288,1.288,0,0,0-1.288,1.288V53.76a1.288,1.288,0,0,0,2.576,0V44.621A1.288,1.288,0,0,0,109.913,43.333Z" transform="translate(-27.42 -10.185)"/><path class="a" d="M90.682,59.584H88.2V11.558a1.288,1.288,0,0,0-1.288-1.288H51.856V6.038A1.288,1.288,0,0,0,50.568,4.75H46.152a1.288,1.288,0,0,0-1.288,1.288V10.27H9.807a1.288,1.288,0,0,0-1.288,1.288V59.584H6.038A1.288,1.288,0,0,0,4.75,60.872V67.5a1.288,1.288,0,0,0,1.288,1.288H35.59L26.475,86.9a3.5,3.5,0,0,0,6.247,3.143l10.7-21.261H53.3L64,90.047A3.5,3.5,0,1,0,70.244,86.9L61.129,68.785H90.682A1.288,1.288,0,0,0,91.97,67.5V60.872a1.288,1.288,0,0,0-1.288-1.288ZM47.44,7.326h1.84V10.27H47.44Zm-36.345,5.52h74.53V59.584H11.095ZM30.421,88.887a.92.92,0,0,1-1.644-.828l9.7-19.274h2.061Zm37.524-.827a.92.92,0,0,1-1.644.827l-10.116-20.1h2.061ZM89.394,66.209H7.326V62.16H89.394Z"/></g></svg>