<svg xmlns="http://www.w3.org/2000/svg" width="86.221" height="86.221" viewBox="0 0 86.221 86.221"><defs><style>.a{fill:#fff;}</style></defs><path class="a" d="M77.24,49.111H66.462a1.8,1.8,0,1,1,0-3.593H77.24a5.4,5.4,0,0,0,5.389-5.389V14.981A5.4,5.4,0,0,0,77.24,9.593H8.981a5.4,5.4,0,0,0-5.389,5.389V40.129a5.4,5.4,0,0,0,5.389,5.389H19.759a1.8,1.8,0,0,1,0,3.593H8.981A8.992,8.992,0,0,1,0,40.129V14.981A8.992,8.992,0,0,1,8.981,6H77.24a8.992,8.992,0,0,1,8.981,8.981V40.129A8.992,8.992,0,0,1,77.24,49.111Z" transform="translate(0 15.555)"/><path class="a" d="M31.352,23.593H9.8A1.8,1.8,0,0,1,9.8,20H31.352a1.8,1.8,0,1,1,0,3.593Z" transform="translate(20.74 51.851)"/><path class="a" d="M31.352,21.593H9.8A1.8,1.8,0,1,1,9.8,18H31.352a1.8,1.8,0,1,1,0,3.593Z" transform="translate(20.74 46.666)"/><path class="a" d="M16.981,19.593H9.8A1.8,1.8,0,1,1,9.8,16h7.185a1.8,1.8,0,0,1,0,3.593Z" transform="translate(20.74 41.481)"/><path class="a" d="M53.5,25.148a1.8,1.8,0,0,1-1.8-1.8V8.981a5.4,5.4,0,0,0-5.389-5.389H13.981A5.4,5.4,0,0,0,8.593,8.981v14.37a1.8,1.8,0,0,1-3.593,0V8.981A8.992,8.992,0,0,1,13.981,0H46.314A8.992,8.992,0,0,1,55.3,8.981v14.37A1.8,1.8,0,0,1,53.5,25.148Z" transform="translate(12.963)"/><path class="a" d="M46.314,52.518H13.981A8.992,8.992,0,0,1,5,43.537V14.8A1.8,1.8,0,0,1,6.8,13H53.5a1.8,1.8,0,0,1,1.8,1.8v28.74A8.992,8.992,0,0,1,46.314,52.518ZM8.593,16.593V43.537a5.4,5.4,0,0,0,5.389,5.389H46.314A5.4,5.4,0,0,0,51.7,43.537V16.593Z" transform="translate(12.963 33.703)"/></svg>