<svg xmlns="http://www.w3.org/2000/svg" width="136.554" height="136.556" viewBox="0 0 136.554 136.556"><path d="M136.127,60.7c-.216-1.919-2.454-3.363-4.39-3.363A15.075,15.075,0,0,1,121.417,31.1a3.8,3.8,0,0,0,.416-5.15,67.594,67.594,0,0,0-10.817-10.924,3.8,3.8,0,0,0-5.189.42A15.737,15.737,0,0,1,88.8,19.267,15.165,15.165,0,0,1,79.577,4.443,3.789,3.789,0,0,0,76.225.454,68.138,68.138,0,0,0,60.863.414a3.8,3.8,0,0,0-3.38,3.908,15.193,15.193,0,0,1-9.35,14.567,15.779,15.779,0,0,1-16.9-3.85,3.805,3.805,0,0,0-5.153-.432A67.875,67.875,0,0,0,15.034,25.528a3.8,3.8,0,0,0,.407,5.187,15.131,15.131,0,0,1,3.818,17.037C16.9,53.365,11.074,56.981,4.4,56.981A3.715,3.715,0,0,0,.458,60.335,68.445,68.445,0,0,0,.429,75.86c.216,1.928,2.52,3.359,4.478,3.359a14.977,14.977,0,0,1,14.05,9.355,15.191,15.191,0,0,1-3.819,16.885,3.791,3.791,0,0,0-.414,5.143,67.832,67.832,0,0,0,10.8,10.928,3.8,3.8,0,0,0,5.2-.412,15.713,15.713,0,0,1,17.021-3.828,15.145,15.145,0,0,1,9.239,14.818,3.79,3.79,0,0,0,3.35,3.989,67.986,67.986,0,0,0,15.362.042,3.8,3.8,0,0,0,3.379-3.91,15.177,15.177,0,0,1,9.344-14.56,15.759,15.759,0,0,1,16.909,3.846,3.813,3.813,0,0,0,5.153.431,67.964,67.964,0,0,0,11.045-10.921,3.792,3.792,0,0,0-.407-5.19,15.127,15.127,0,0,1-3.825-17.031,15.283,15.283,0,0,1,13.967-9.256l.844.022a3.8,3.8,0,0,0,4-3.349A68.145,68.145,0,0,0,136.127,60.7ZM68.279,107.641a39.361,39.361,0,1,1,33.8-19.18L84.838,71.224a24.146,24.146,0,0,0-28.587-32.7,2.733,2.733,0,0,0-1.89,1.9,2.667,2.667,0,0,0,.758,2.609s8.509,8.575,11.356,11.421a1.765,1.765,0,0,1,.256,1.266l-.027.187a54.421,54.421,0,0,1-1.3,8.331c-.061.061-.119.112-.182.175s-.126.129-.189.194a53.64,53.64,0,0,1-8.457,1.314V65.9l-.143.036a1.237,1.237,0,0,1-.135.007,1.819,1.819,0,0,1-1.309-.555c-2.963-2.963-11.139-11.081-11.139-11.081a2.779,2.779,0,0,0-1.987-.885,2.7,2.7,0,0,0-2.545,2.056A24.148,24.148,0,0,0,72.037,84.025L89.46,101.448A39.164,39.164,0,0,1,68.279,107.641Z" transform="translate(-0.002 0.001)"/></svg>